<svg width="56" height="86" viewBox="0 0 56 86" fill="none" xmlns="http://www.w3.org/2000/svg">
<path d="M35.1915 17.131V17.5497C35.1915 17.8347 35.1915 17.637 35.1915 17.5497C35.1551 17.772 35.1046 17.9915 35.0405 18.2069C35.0069 18.329 34.9621 18.457 34.9174 18.5791C34.9174 18.5151 35.0293 18.3581 34.9174 18.5791C34.8055 18.8001 34.6713 19.0327 34.5314 19.2537C34.3133 19.591 34.6377 19.1374 34.4811 19.3177C34.414 19.3991 34.3413 19.4805 34.2686 19.5561C34.1958 19.6317 34.1511 19.6783 34.0896 19.7422C34.028 19.8062 33.7539 20.033 33.9889 19.8469C33.8223 19.9785 33.6465 20.0971 33.4631 20.2017L33.2449 20.3238C33.0939 20.3936 33.0883 20.3994 33.2449 20.3238C33.1876 20.3531 33.1277 20.3764 33.0659 20.3936C32.8641 20.4652 32.6587 20.5253 32.4507 20.5739C32.3835 20.5739 32.0983 20.632 32.3724 20.5739C32.2605 20.5739 32.1486 20.5739 32.0367 20.6029C31.8151 20.6173 31.5928 20.6173 31.3711 20.6029C31.125 20.6029 31.6899 20.6843 31.2928 20.6029L30.9124 20.5099C30.7894 20.475 30.6719 20.4285 30.5489 20.3878C30.4258 20.347 30.3083 20.2714 30.5489 20.3878C30.3565 20.2948 30.1698 20.1899 29.9895 20.0737C29.9 20.0156 29.8161 19.9516 29.7322 19.8876C29.542 19.748 29.9504 20.1144 29.6707 19.8353C29.4917 19.6492 29.3127 19.4747 29.1505 19.2537C29.3071 19.4398 29.1505 19.2537 29.1505 19.2537L28.9435 18.928L28.8205 18.7012C28.8205 18.6663 28.6359 18.2767 28.7478 18.5675C28.6683 18.3612 28.6028 18.1494 28.552 17.9336C28.552 17.8463 28.5184 17.7591 28.496 17.6719C28.4737 17.5846 28.496 17.4974 28.496 17.6719C28.4903 17.6041 28.4903 17.536 28.496 17.4683C28.4821 17.2612 28.4821 17.0532 28.496 16.8461C28.496 16.8053 28.5576 16.3634 28.496 16.6832L28.5464 16.4215C28.5942 16.2049 28.654 15.9913 28.7254 15.7818C28.8484 15.398 28.5967 15.997 28.7869 15.6422C28.8484 15.5317 28.9044 15.4096 28.9659 15.2991L29.1393 15.0258C29.1729 14.9676 29.3519 14.7524 29.184 14.956C29.3188 14.7905 29.4626 14.6332 29.6147 14.4849C29.6147 14.4849 29.9112 14.2174 29.7546 14.3453C29.598 14.4733 29.928 14.2232 29.9168 14.229C30.1274 14.0843 30.348 13.956 30.5768 13.8452C30.5209 13.8743 30.3363 13.9266 30.5768 13.8452C30.6999 13.8045 30.8174 13.758 30.9404 13.7231L31.1921 13.6591C31.1921 13.6591 31.5949 13.5835 31.3879 13.6126C31.1809 13.6417 31.6116 13.6126 31.6004 13.6126H31.9305H32.2661C32.5961 13.6126 32.1262 13.5602 32.4115 13.6126C32.6968 13.6649 32.9093 13.7405 33.1554 13.8278C33.5358 13.9615 33.0156 13.7521 33.2282 13.8626L33.6197 14.0778L33.8323 14.2174L34.0336 14.3686C33.9162 14.2756 33.9218 14.2814 34.0336 14.3686C34.1455 14.4558 34.3245 14.6768 34.4755 14.828C34.744 15.113 34.3469 14.607 34.565 14.9443C34.6377 15.049 34.7048 15.1595 34.772 15.27C34.8391 15.3805 34.8894 15.5026 34.951 15.6131C35.0908 15.8748 34.9118 15.4387 35.0125 15.7527C35.1132 16.0668 35.1579 16.2587 35.2195 16.5204C35.2195 16.5727 35.2586 16.8053 35.2195 16.5204C35.2195 16.7065 35.2195 16.8926 35.253 17.0729C35.253 17.4585 35.4003 17.8283 35.6626 18.1009C35.9248 18.3736 36.2805 18.5268 36.6514 18.5268C37.0223 18.5268 37.3779 18.3736 37.6402 18.1009C37.9024 17.8283 38.0498 17.4585 38.0498 17.0729C38.0203 15.7496 37.6065 14.4665 36.8628 13.3923C36.1191 12.318 35.0802 11.5028 33.8826 11.0537C32.6967 10.6124 31.4097 10.5568 30.1927 10.8944C28.9757 11.232 27.8864 11.9468 27.0697 12.9438C26.4234 13.7338 25.97 14.6744 25.7482 15.6857C25.5264 16.6969 25.5426 17.7488 25.7955 18.7521C26.0484 19.7554 26.5305 20.6804 27.2008 21.4486C27.8712 22.2167 28.7099 22.8052 29.6459 23.1641C30.5818 23.5231 31.5873 23.6418 32.5768 23.5102C33.5663 23.3787 34.5107 23.0007 35.3296 22.4084C36.1485 21.8162 36.8179 21.0271 37.2807 20.1084C37.7436 19.1896 37.9863 18.1682 37.9882 17.131C37.9882 16.7454 37.8409 16.3756 37.5787 16.103C37.3164 15.8303 36.9607 15.6771 36.5899 15.6771C36.219 15.6771 35.8633 15.8303 35.6011 16.103C35.3388 16.3756 35.1915 16.7454 35.1915 17.131V17.131Z" fill="#4DDBC1"/>
<path d="M28.456 15.8981L28.3945 3.27819V1.46954L26.9849 2.91181C27.7564 2.88835 28.5285 2.92334 29.2951 3.01649L29.8153 3.07465L30.1229 3.11536C29.8041 3.07465 29.9215 3.08046 30.1229 3.11536C30.5648 3.18514 31.0067 3.26656 31.443 3.3538C32.4729 3.57252 33.489 3.85607 34.4859 4.20287C34.7543 4.29592 35.0452 4.39479 35.2857 4.49947L35.6381 4.65649L35.8507 4.74954C36.1919 4.8833 35.6437 4.65068 35.9066 4.74954C36.466 4.99961 37.0253 5.27295 37.5847 5.57536C38.144 5.87777 38.7034 6.2267 39.2627 6.5989C39.5238 6.78113 39.7811 6.97498 40.0346 7.18046C40.0962 7.22117 40.5436 7.58174 40.264 7.35493C40.4094 7.46543 40.5492 7.58756 40.6891 7.70387C41.2325 8.171 41.7516 8.66797 42.2441 9.19266C42.5014 9.466 42.7475 9.74514 42.988 10.0359L43.3348 10.4546L43.4858 10.6466L43.6369 10.8443C43.553 10.7338 43.5418 10.7164 43.5977 10.7978C44.6004 12.1822 45.4451 13.683 46.1148 15.27C46.2434 15.5782 46.1763 15.4095 46.2994 15.7352C46.4224 16.0609 46.4952 16.2528 46.5847 16.5087C46.7636 17.0263 46.9259 17.5439 47.0713 18.0673C47.397 19.2231 47.6567 20.398 47.8488 21.5857C48.2642 24.3783 48.4048 27.2077 48.2683 30.03C48.1956 31.9026 50.9924 31.8968 51.0651 30.03C51.3839 21.5973 49.745 12.4727 43.5753 6.48259C39.8221 2.8711 34.9949 0.853086 29.9998 0.201739C29.0019 0.0484914 27.9934 -0.0176496 26.9849 0.0040081C26.6163 0.0114523 26.2648 0.167021 26.004 0.438083C25.7433 0.709145 25.5937 1.07464 25.5865 1.45791L25.6481 14.072V15.8864C25.6481 17.7532 28.4448 17.759 28.4448 15.8864L28.456 15.8981Z" fill="#4DDBC1"/>
<path d="M49.623 28.5711C42.8045 28.4607 35.986 28.2687 29.1731 28.2455C26.1304 28.1685 23.0922 28.5306 20.1452 29.3214C17.5343 30.0814 15.0448 31.2355 12.7561 32.7467C10.1556 34.4639 7.85392 36.6269 5.94882 39.1439C5.69541 39.4207 5.55408 39.7882 5.55408 40.1704C5.55408 40.5525 5.69541 40.92 5.94882 41.1968C6.21094 41.4685 6.56596 41.621 6.93608 41.621C7.30619 41.621 7.66121 41.4685 7.92333 41.1968C11.0708 37.002 15.3732 33.9043 20.2571 32.3164C22.9737 31.5004 25.7919 31.1084 28.6194 31.1533C31.9084 31.1533 35.1918 31.2463 38.4807 31.2987L49.623 31.4789C51.4186 31.508 51.4242 28.6002 49.623 28.5711V28.5711Z" fill="#4DDBC1"/>
<path d="M6.08797 39.0971C2.33073 43.9999 0.19804 50.0339 0.0078103 56.2996C-0.130371 62.2894 1.56808 68.1696 4.85739 73.0893C6.68654 75.8373 8.95712 78.2374 11.5696 80.1843C11.7283 80.2805 11.9036 80.3433 12.0856 80.3691C12.2676 80.3949 12.4527 80.3831 12.6304 80.3345C12.808 80.2859 12.9747 80.2014 13.1209 80.0858C13.2672 79.9703 13.3901 79.8259 13.4826 79.6609C13.5752 79.4959 13.6356 79.3136 13.6603 79.1244C13.6851 78.9352 13.6738 78.7427 13.6271 78.558C13.5803 78.3733 13.4991 78.2 13.3879 78.048C13.2767 77.896 13.1379 77.7682 12.9792 77.672C8.79908 74.5301 5.67747 70.0987 4.05782 65.0071C2.43817 59.9156 2.40283 54.4229 3.95684 49.3093C4.83634 46.3577 6.2278 43.5983 8.06248 41.1674C8.31626 40.8896 8.45776 40.5212 8.45776 40.1381C8.45776 39.7549 8.31626 39.3865 8.06248 39.1087C7.79965 38.8384 7.44489 38.6868 7.07523 38.6868C6.70556 38.6868 6.3508 38.8384 6.08797 39.1087V39.0971Z" fill="#4DDBC1"/>
<path d="M11.5856 80.1838C16.0765 83.3217 21.2629 85.2172 26.6545 85.6912C31.8856 86.2867 37.1752 85.4403 41.992 83.237C46.564 81.1237 50.3677 77.548 52.849 73.0306C55.195 68.6354 56.2691 63.6289 55.9422 58.6137C55.601 53.1936 53.7831 47.6455 50.2312 43.5862C48.5075 41.6359 46.3967 40.0985 44.0449 39.0803C41.6931 38.062 39.1566 37.5874 36.611 37.6892C33.9435 37.8199 31.3419 38.5942 29.012 39.9508C26.682 41.3073 24.6876 43.209 23.1866 45.5053C21.7195 47.7771 20.8181 50.3921 20.5633 53.1155C20.3085 55.8389 20.7082 58.5855 21.7266 61.1086C22.7161 63.3887 24.2629 65.3596 26.2129 66.8248C28.163 68.29 30.4482 69.1985 32.841 69.4598C35.4173 69.7324 38.007 69.0983 40.1955 67.659C42.3841 66.2197 44.0448 64.0585 44.9118 61.5215C45.3127 60.2391 45.4778 58.8896 45.3984 57.5436C45.3899 57.1608 45.2398 56.7962 44.9794 56.5254C44.719 56.2546 44.3682 56.0986 44 56.0897C43.6301 56.0928 43.2761 56.2469 43.0145 56.5189C42.7529 56.7909 42.6046 57.159 42.6017 57.5436C42.8869 62.1961 39.4078 66.0053 35.056 66.552C31.1405 67.0463 27.13 64.8073 25.0436 61.4226C22.6775 57.5669 22.7447 52.4085 24.7695 48.4131C25.8367 46.3454 27.3596 44.5697 29.2136 43.2314C31.0676 41.8931 33.2 41.0302 35.4364 40.7133C37.5987 40.4285 39.7949 40.646 41.8667 41.3499C43.9385 42.0538 45.8344 43.2268 47.4177 44.7842C50.6955 47.9944 52.5134 52.7283 53.0448 57.3168C53.5724 61.6213 52.9493 65.9937 51.2437 69.9541C49.4269 74.0265 46.4306 77.4061 42.6744 79.6197C34.6868 84.3652 24.0591 83.9174 16.0045 79.5673C14.9641 79.0017 13.959 78.3685 12.9952 77.6714C12.6737 77.4816 12.2936 77.4301 11.9361 77.5279C11.5786 77.6257 11.2721 77.8651 11.0822 78.1948C10.9039 78.53 10.8567 78.9238 10.9505 79.2942C11.0442 79.6646 11.2717 79.9832 11.5856 80.1838V80.1838Z" fill="#4DDBC1"/>
</svg>
