<svg width="23" height="23" viewBox="0 0 23 23" fill="none" xmlns="http://www.w3.org/2000/svg">
<path d="M17.25 7.66668H19.1667C19.4208 7.66668 19.6646 7.76765 19.8443 7.94737C20.024 8.12709 20.125 8.37085 20.125 8.62501V20.125C20.125 20.3792 20.024 20.6229 19.8443 20.8027C19.6646 20.9824 19.4208 21.0833 19.1667 21.0833H3.83333C3.57917 21.0833 3.33541 20.9824 3.15569 20.8027C2.97597 20.6229 2.875 20.3792 2.875 20.125V8.62501C2.875 8.37085 2.97597 8.12709 3.15569 7.94737C3.33541 7.76765 3.57917 7.66668 3.83333 7.66668H5.75V6.70835C5.75 5.18335 6.3558 3.72082 7.43414 2.64248C8.51247 1.56415 9.97501 0.958347 11.5 0.958347C13.025 0.958347 14.4875 1.56415 15.5659 2.64248C16.6442 3.72082 17.25 5.18335 17.25 6.70835V7.66668ZM15.3333 7.66668V6.70835C15.3333 5.69168 14.9295 4.71666 14.2106 3.99777C13.4917 3.27888 12.5167 2.87501 11.5 2.87501C10.4833 2.87501 9.50831 3.27888 8.78942 3.99777C8.07053 4.71666 7.66667 5.69168 7.66667 6.70835V7.66668H15.3333ZM10.5417 13.4167V15.3333H12.4583V13.4167H10.5417ZM6.70833 13.4167V15.3333H8.625V13.4167H6.70833ZM14.375 13.4167V15.3333H16.2917V13.4167H14.375Z" fill="#CBDCEC"/>
</svg>
